Coordinates
version=1
nRows=8
nColumns=42
inDegrees=yes

Units are S.I. units (second, meters, Newtons, ...)
Angles are in degrees.

endheader
time	pelvis_tilt	pelvis_list	pelvis_rotation	pelvis_tx	pelvis_ty	pelvis_tz	hip_flexion_r	hip_adduction_r	hip_rotation_r	knee_angle_r	knee_vv_r	knee_rot_r	ankle_angle_r	subtalar_angle_r	mtp_angle_r	hip_flexion_l	hip_adduction_l	hip_rotation_l	knee_angle_l	knee_vv_l	knee_rot_l	ankle_angle_l	subtalar_angle_l	mtp_angle_l	lumbar_extension	lumbar_bending	lumbar_rotation	arm_flex_r	arm_add_r	arm_rot_r	elbow_flex_r	pro_sup_r	wrist_flex_r	wrist_dev_r	arm_flex_l	arm_add_l	arm_rot_l	elbow_flex_l	pro_sup_l	wrist_flex_l	wrist_dev_l
      0.01000000	     -5.52792925	     -7.36413573	     -2.43823312	     -0.04145476	      0.98100536	      2.64694862	     32.61867456	      6.92552630	     10.41273859	    -35.63543525	      2.97969017	     -4.39699150	     -7.50864161	      0.00000000	      0.00000000	    -14.89044070	    -13.46392199	     -0.09190051	    -11.45320917	     -2.56383552	      6.74780705	    -28.94681448	      0.00000000	      0.00000000	    -11.77309210	      4.94228787	     -9.84791340	    -36.62338394	    -18.56881994	     -1.12755644	    128.50740441	     86.51662706	      0.00000000	      0.00000000	     -4.73440544	    -28.20103230	     -1.60543522	    137.12158834	     85.94366927	      0.00000000	      0.00000000
      0.02000000	     -5.77389958	     -7.40533151	     -2.53590645	     -0.03829863	      0.98421035	      2.64806033	     31.69501601	      6.78355688	     10.47041661	    -28.81663638	      2.74696799	     -3.56078405	     -7.90713904	      0.00000000	      0.00000000	    -16.10132039	    -13.46676842	     -1.10245241	    -10.58927770	     -2.12702505	      6.81605480	    -32.17356872	      0.00000000	      0.00000000	    -11.30899670	      5.12131850	    -10.13284200	    -37.58468489	    -18.14037569	     -2.01067811	    128.76519117	     86.51662706	      0.00000000	      0.00000000	     -5.21781435	    -28.07438684	     -0.79552210	    137.66159836	     85.94366927	      0.00000000	      0.00000000
      0.03000000	     -5.85258573	     -7.28197117	     -2.56051803	     -0.03521176	      0.98646859	      2.64877980	     30.69538465	      6.50466675	      9.62138720	    -22.84068718	      2.28149682	     -2.22023369	     -8.96534760	      0.00000000	      0.00000000	    -17.07328143	    -13.22018493	     -1.95403647	    -10.80297288	     -1.58588117	      6.62154346	    -34.02378472	      0.00000000	      0.00000000	    -11.04349092	      5.13266854	    -10.44290572	    -38.40099389	    -17.79873661	     -2.83057094	    129.06103898	     86.51662706	      0.00000000	      0.00000000	     -5.73869167	    -27.97661526	      0.05689559	    138.19369583	     85.94366927	      0.00000000	      0.00000000
      0.04000000	     -5.78671540	     -7.03468260	     -2.52082605	     -0.03233618	      0.98772331	      2.64919483	     29.69262409	      6.13970918	      8.01723139	    -17.85350067	      1.70197113	     -0.53521571	    -10.46900541	      0.00000000	      0.00000000	    -17.78273395	    -12.79656691	     -2.49242370	    -12.04914994	     -1.03478428	      6.44737918	    -34.71039469	      0.00000000	      0.00000000	    -10.96641388	      5.01712327	    -10.75490836	    -39.05329956	    -17.53000812	     -3.59034244	    129.38081529	     86.51662706	      0.00000000	      0.00000000	     -6.27108245	    -27.90479103	      0.93727536	    138.69685816	     85.94366927	      0.00000000	      0.00000000
      0.05000000	     -5.60013335	     -6.71531564	     -2.43634420	     -0.02979208	      0.98791540	      2.64947083	     28.76235061	      5.74754122	      5.88469233	    -14.01667315	      1.13356601	      1.30023899	    -12.15904474	      0.00000000	      0.00000000	    -18.20732779	    -12.27720861	     -2.55344075	    -14.25660617	     -0.58745858	      6.58939239	    -34.52118116	      0.00000000	      0.00000000	    -11.06626058	      4.82299554	    -11.03440639	    -39.52091736	    -17.32038017	     -4.29352666	    129.70611060	     86.51662706	      0.00000000	      0.00000000	     -6.78832438	    -27.85490539	      1.82553378	    139.14360761	     85.94366927	      0.00000000	      0.00000000
      0.06000000	     -5.31273904	     -6.37407524	     -2.33735188	     -0.02761135	      0.98705390	      2.64978965	     27.95862353	      5.38010113	      3.50375575	    -11.45333123	      0.66651165	      3.10410402	    -13.77647866	      0.00000000	      0.00000000	    -18.33858198	    -11.73162952	     -2.03087325	    -17.32565726	     -0.34942886	      7.25010954	    -33.76899699	      0.00000000	      0.00000000	    -11.33127420	      4.59576325	    -11.24053945	    -39.79023942	    -17.16198570	     -4.94344189	    130.01908032	     86.51662706	      0.00000000	      0.00000000	     -7.27294158	    -27.82167171	      2.69901003	    139.50522695	     85.94366927	      0.00000000	      0.00000000
      0.07000000	     -4.94109837	     -6.05141384	     -2.25760235	     -0.02577586	      0.98521762	      2.65024992	     27.30173341	      5.07505268	      1.17462261	    -10.21053706	      0.33841675	      4.73795278	    -15.07831161	      0.00000000	      0.00000000	    -18.19073518	    -11.20640203	     -0.92747118	    -21.12967255	     -0.39809878	      8.48025977	    -32.74239332	      0.00000000	      0.00000000	    -11.74728027	      4.37312679	    -11.33300494	    -39.86144456	    -17.05643781	     -5.54272280	    130.30834342	     86.51662706	      0.00000000	      0.00000000	     -7.72184711	    -27.79783482	      3.53527750	    139.75625061	     85.94366927	      0.00000000	      0.00000000
      0.08000000	     -4.50005715	     -5.77882139	     -2.22169973	     -0.02427980	      0.98245538	      2.65087854	     26.77745514	      4.85747572	     -0.82489142	    -10.23846012	      0.13951514	      6.12102199	    -15.83467398	      0.00000000	      0.00000000	    -17.80250277	    -10.72437654	      0.62623892	    -25.52466020	     -0.76979388	     10.17386588	    -31.66398407	      0.00000000	      0.00000000	    -12.29349099	      4.18502402	    -11.27967835	    -39.75076675	    -17.01526775	     -6.09254983	    130.57478104	     86.51662706	      0.00000000	      0.00000000	     -8.14650500	    -27.77365081	      4.31436666	    139.87798746	     85.94366927	      0.00000000	      0.00000000
